<svg width="24" height="25" viewBox="0 0 24 25" fill="none" xmlns="http://www.w3.org/2000/svg">
<path d="M22.1482 10.191H16.1482C16.0451 10.191 15.9607 10.2754 15.9607 10.3785V11.5035C15.9607 11.6067 16.0451 11.691 16.1482 11.691H22.1482C22.2514 11.691 22.3357 11.6067 22.3357 11.5035V10.3785C22.3357 10.2754 22.2514 10.191 22.1482 10.191ZM19.0076 13.3785H16.1482C16.0451 13.3785 15.9607 13.4629 15.9607 13.566V14.691C15.9607 14.7942 16.0451 14.8785 16.1482 14.8785H19.0076C19.1107 14.8785 19.1951 14.7942 19.1951 14.691V13.566C19.1951 13.4629 19.1107 13.3785 19.0076 13.3785ZM11.1865 8.09338H10.1717C10.0264 8.09338 9.90918 8.21057 9.90918 8.35588V14.1684C9.90918 14.2528 9.94902 14.3301 10.017 14.3793L13.5068 16.9246C13.624 17.009 13.7881 16.9856 13.8725 16.8684L14.4748 16.0457V16.0434C14.5592 15.9262 14.5334 15.7621 14.4162 15.6778L11.4467 13.5309V8.35588C11.449 8.21057 11.3295 8.09338 11.1865 8.09338Z" fill="#E91B1B"/>
<path d="M18.8625 16.3294H17.5078C17.3766 16.3294 17.2524 16.3973 17.182 16.5098C16.8844 16.9809 16.5375 17.4169 16.1391 17.8153C15.4524 18.502 14.6531 19.0411 13.7649 19.4161C12.8438 19.8052 11.8664 20.002 10.8586 20.002C9.84845 20.002 8.87111 19.8052 7.95236 19.4161C7.06408 19.0411 6.26486 18.502 5.57814 17.8153C4.89142 17.1286 4.35236 16.3294 3.97736 15.4411C3.5883 14.5223 3.39142 13.545 3.39142 12.5348C3.39142 11.5247 3.5883 10.5497 3.97736 9.62859C4.35236 8.74031 4.89142 7.94109 5.57814 7.25437C6.26486 6.56765 7.06408 6.02859 7.95236 5.65359C8.87111 5.26453 9.8508 5.06765 10.8586 5.06765C11.8688 5.06765 12.8461 5.26453 13.7649 5.65359C14.6531 6.02859 15.4524 6.56765 16.1391 7.25437C16.5375 7.65281 16.8844 8.08875 17.182 8.55984C17.2524 8.67234 17.3766 8.74031 17.5078 8.74031H18.8625C19.0242 8.74031 19.1274 8.57156 19.0547 8.42859C17.5266 5.38875 14.4281 3.41296 10.9688 3.37312C5.90392 3.30984 1.69689 7.45593 1.68752 12.5161C1.67814 17.5856 5.78673 21.6989 10.8563 21.6989C14.3602 21.6989 17.5102 19.7161 19.0547 16.6411C19.1274 16.4981 19.0219 16.3294 18.8625 16.3294Z" fill="#E91B1B"/>
</svg>
