<svg width="21" height="18" viewBox="0 0 21 18" fill="none" xmlns="http://www.w3.org/2000/svg">
<path d="M5.27734 0.791667C5.27734 0.354442 5.63179 0 6.06901 0H19.2635C19.7007 0 20.0551 0.354441 20.0551 0.791667V2.375C20.0551 2.81222 19.7007 3.16667 19.2635 3.16667H6.06901C5.63179 3.16667 5.27734 2.81223 5.27734 2.375V0.791667Z" fill="#2E2F41"/>
<path d="M5.27734 7.79167C5.27734 7.35444 5.63179 7 6.06901 7H19.2635C19.7007 7 20.0551 7.35444 20.0551 7.79167V9.375C20.0551 9.81222 19.7007 10.1667 19.2635 10.1667H6.06901C5.63179 10.1667 5.27734 9.81223 5.27734 9.375V7.79167Z" fill="#2E2F41"/>
<path d="M5.27734 14.7917C5.27734 14.3544 5.63179 14 6.06901 14H19.2635C19.7007 14 20.0551 14.3544 20.0551 14.7917V16.375C20.0551 16.8122 19.7007 17.1667 19.2635 17.1667H6.06901C5.63179 17.1667 5.27734 16.8122 5.27734 16.375V14.7917Z" fill="#2E2F41"/>
<path d="M0 0.316667C0 0.141777 0.141777 0 0.316667 0H2.85C3.02489 0 3.16667 0.141777 3.16667 0.316667V2.85C3.16667 3.02489 3.02489 3.16667 2.85 3.16667H0.316667C0.141777 3.16667 0 3.02489 0 2.85V0.316667Z" fill="#2E2F41"/>
<path d="M0 7.31667C0 7.14178 0.141777 7 0.316667 7H2.85C3.02489 7 3.16667 7.14178 3.16667 7.31667V9.85C3.16667 10.0249 3.02489 10.1667 2.85 10.1667H0.316667C0.141777 10.1667 0 10.0249 0 9.85V7.31667Z" fill="#2E2F41"/>
<path d="M0 14.3167C0 14.1418 0.141777 14 0.316667 14H2.85C3.02489 14 3.16667 14.1418 3.16667 14.3167V16.85C3.16667 17.0249 3.02489 17.1667 2.85 17.1667H0.316667C0.141777 17.1667 0 17.0249 0 16.85V14.3167Z" fill="#2E2F41"/>
</svg>
