<svg width="12" height="15" viewBox="0 0 12 15" fill="none" xmlns="http://www.w3.org/2000/svg">
<path d="M11.0328 6.89579C10.7295 6.21306 10.2885 5.60028 9.7375 5.09579L9.28281 4.6786C9.26737 4.66482 9.24879 4.65505 9.22869 4.65013C9.2086 4.64521 9.1876 4.6453 9.16754 4.65039C9.14749 4.65548 9.12899 4.66542 9.11367 4.67933C9.09835 4.69324 9.08668 4.71069 9.07969 4.73016L8.87656 5.31298C8.75 5.6786 8.51719 6.05204 8.1875 6.41923C8.16563 6.44266 8.14063 6.44891 8.12344 6.45048C8.10625 6.45204 8.07969 6.44891 8.05625 6.42704C8.03437 6.40829 8.02344 6.38016 8.025 6.35204C8.08281 5.41141 7.80156 4.35048 7.18594 3.19579C6.67656 2.23641 5.96875 1.48798 5.08437 0.966101L4.43906 0.586413C4.35469 0.536413 4.24688 0.602038 4.25156 0.700476L4.28594 1.45048C4.30937 1.96298 4.25 2.4161 4.10938 2.79266C3.9375 3.2536 3.69062 3.68173 3.375 4.0661C3.15535 4.33323 2.90639 4.57485 2.63281 4.78641C1.97391 5.29292 1.43815 5.94193 1.06562 6.68485C0.694022 7.43425 0.500453 8.25932 0.5 9.09579C0.5 9.83329 0.645312 10.5474 0.932812 11.2208C1.21042 11.8692 1.61103 12.4576 2.1125 12.9536C2.61875 13.4536 3.20625 13.8474 3.86094 14.1208C4.53906 14.4052 5.25781 14.5489 6 14.5489C6.74219 14.5489 7.46094 14.4052 8.13906 14.1224C8.79214 13.8505 9.38601 13.4541 9.8875 12.9552C10.3938 12.4552 10.7906 11.8708 11.0672 11.2224C11.3543 10.5508 11.5015 9.82772 11.5 9.09735C11.5 8.33485 11.3438 7.59423 11.0328 6.89579Z" fill="#E91B1B"/>
</svg>
