<svg width="170" height="65" viewBox="0 0 170 65" fill="none" xmlns="http://www.w3.org/2000/svg">
<path d="M12.194 0H163.909C166.538 0 168.453 2.49374 167.773 5.0339L156.926 45.5735H22.1467C10.9712 45.5735 2.83578 34.9752 5.72435 24.1795L12.194 0Z" fill="#333333"/>
<path d="M12.194 0H79.8808L67.6868 45.5735H5.21097C2.58146 45.5735 0.667242 43.0798 1.34691 40.5396L12.194 0Z" fill="#E91B1B"/>
<path d="M91.2024 45.5735H67.6703L62.6348 64.3932L91.2024 45.5735Z" fill="#333333"/>
<path d="M101.88 14.1318L97.5191 30.4714H90.0965L88.8472 17.9044H88.6512L85.4911 30.4714H81.2041L85.5646 14.1318H92.9382L94.212 26.5518H94.3835L97.5436 14.1318H101.88Z" fill="white"/>
<path d="M107.965 17.7329L107.181 20.6725H114.138L113.305 23.7102H106.348L105.515 26.8703H113.109L112.154 30.4714H100.175L104.535 14.1318H116.367L115.412 17.7329H107.965Z" fill="white"/>
<path d="M141.822 14.1318L133.811 30.4714H127.516L128.054 20.2316H127.883L122.763 30.4714H116.541L117.398 14.1318H121.783L120.754 26.7233H120.926L127.369 14.1318H131.876L131.435 26.7233H131.582L137.437 14.1318H141.822Z" fill="white"/>
<path d="M154.735 19.2272H150.571C150.636 19.0312 150.677 18.8516 150.693 18.6883C150.709 18.525 150.718 18.3862 150.718 18.2718C150.701 18.1412 150.677 18.035 150.644 17.9534C150.611 17.8554 150.562 17.7737 150.497 17.7084C150.432 17.6594 150.35 17.6186 150.252 17.5859C150.154 17.5369 150.04 17.5043 149.909 17.4879C149.762 17.4553 149.607 17.4308 149.444 17.4144C149.297 17.3981 149.125 17.3899 148.929 17.3899L148.488 17.341C148.472 17.3573 148.456 17.3736 148.439 17.3899C148.423 17.3899 148.407 17.3899 148.39 17.3899C148.374 17.3899 148.358 17.3899 148.341 17.3899C148.325 17.3899 148.309 17.3899 148.292 17.3899C148.243 17.3899 148.194 17.3899 148.145 17.3899C148.113 17.3899 148.072 17.3899 148.023 17.3899C147.925 17.4063 147.827 17.4226 147.729 17.4389C147.647 17.4389 147.566 17.4471 147.484 17.4634C147.353 17.4798 147.223 17.5043 147.092 17.5369C146.978 17.5696 146.855 17.6023 146.725 17.6349C146.594 17.6676 146.471 17.7247 146.357 17.8064C146.259 17.8717 146.169 17.9534 146.088 18.0514C146.006 18.1657 145.933 18.2882 145.867 18.4188C145.802 18.5495 145.745 18.7046 145.696 18.8843C145.663 19.0149 145.63 19.1374 145.598 19.2517C145.581 19.366 145.573 19.464 145.573 19.5457C145.573 19.6437 145.581 19.7335 145.598 19.8151C145.614 19.8805 145.639 19.9458 145.671 20.0111C145.704 20.0765 145.745 20.1336 145.794 20.1826C145.859 20.2316 145.933 20.2724 146.014 20.3051C146.096 20.3378 146.186 20.3704 146.284 20.4031C146.382 20.4194 146.496 20.4276 146.627 20.4276C146.692 20.4439 146.749 20.4602 146.798 20.4766C146.863 20.4766 146.929 20.4766 146.994 20.4766C147.059 20.4766 147.125 20.4766 147.19 20.4766C147.255 20.4766 147.321 20.4766 147.386 20.4766C147.402 20.4766 147.419 20.4847 147.435 20.5011C147.468 20.5011 147.492 20.5011 147.509 20.5011C147.541 20.5011 147.574 20.5092 147.607 20.5256C147.656 20.5256 147.705 20.5256 147.754 20.5256C147.819 20.5256 147.884 20.5256 147.949 20.5256C148.015 20.5256 148.08 20.5256 148.145 20.5256C148.162 20.5256 148.178 20.5256 148.194 20.5256C148.211 20.5256 148.227 20.5256 148.243 20.5256C148.26 20.5256 148.276 20.5256 148.292 20.5256C148.309 20.5256 148.317 20.5256 148.317 20.5256C148.333 20.5256 148.35 20.5256 148.366 20.5256C148.774 20.5419 149.166 20.5746 149.542 20.6236C149.934 20.6562 150.309 20.7052 150.669 20.7705C151.012 20.8359 151.346 20.9093 151.673 20.991C152.016 21.0727 152.343 21.1625 152.653 21.2605C152.963 21.3748 153.216 21.5463 153.412 21.7749C153.608 21.9872 153.747 22.2567 153.829 22.5833C153.91 22.9263 153.935 23.3182 153.902 23.7592C153.87 24.2001 153.78 24.6982 153.633 25.2535C153.616 25.2861 153.6 25.3188 153.584 25.3515C153.584 25.3841 153.576 25.4168 153.559 25.4495C153.559 25.4658 153.559 25.4821 153.559 25.4985C153.559 25.4985 153.559 25.5066 153.559 25.523C153.543 25.5393 153.535 25.5556 153.535 25.5719C153.535 25.5719 153.535 25.5801 153.535 25.5964C153.518 25.6291 153.502 25.6618 153.486 25.6944C153.486 25.7271 153.486 25.7598 153.486 25.7924C153.486 25.8088 153.478 25.8251 153.461 25.8414C153.461 25.8577 153.461 25.8659 153.461 25.8659C153.445 25.8822 153.437 25.8986 153.437 25.9149C153.437 25.9312 153.437 25.9476 153.437 25.9639C153.42 25.9966 153.404 26.0292 153.388 26.0619C153.388 26.0946 153.388 26.1272 153.388 26.1599C153.371 26.1762 153.355 26.2007 153.339 26.2334C153.339 26.2497 153.331 26.2742 153.314 26.3069C153.314 26.3232 153.306 26.3395 153.29 26.3559C153.29 26.3559 153.29 26.364 153.29 26.3804C153.273 26.3967 153.257 26.4212 153.241 26.4538C153.241 26.4702 153.241 26.4865 153.241 26.5028C153.241 26.5192 153.233 26.5355 153.216 26.5518C153.216 26.5682 153.216 26.5763 153.216 26.5763C153.216 26.5927 153.208 26.609 153.192 26.6253C153.192 26.6417 153.192 26.658 153.192 26.6743C153.143 26.805 153.094 26.9356 153.045 27.0663C152.996 27.1806 152.947 27.3031 152.898 27.4337C152.865 27.499 152.833 27.5644 152.8 27.6297C152.767 27.6787 152.735 27.7359 152.702 27.8012C152.669 27.8665 152.637 27.9318 152.604 27.9972C152.571 28.0461 152.539 28.1033 152.506 28.1686C152.441 28.283 152.359 28.4054 152.261 28.5361C152.179 28.6504 152.089 28.7566 151.991 28.8545C151.894 28.9525 151.796 29.0505 151.698 29.1485C151.6 29.2302 151.485 29.3118 151.355 29.3935C151.191 29.5078 151.028 29.614 150.865 29.7119C150.718 29.7936 150.554 29.8753 150.375 29.9569C150.277 30.0059 150.162 30.0549 150.032 30.1039C149.917 30.1366 149.803 30.1692 149.689 30.2019C149.64 30.2182 149.583 30.2345 149.517 30.2509C149.468 30.2672 149.411 30.2835 149.346 30.2999C149.182 30.3325 149.011 30.3652 148.831 30.3979C148.668 30.4142 148.497 30.4387 148.317 30.4714C148.203 30.4714 148.088 30.4714 147.974 30.4714C147.86 30.4877 147.745 30.4958 147.631 30.4958C147.566 30.4958 147.509 30.4958 147.46 30.4958C147.411 30.5122 147.353 30.5203 147.288 30.5203C147.272 30.5203 147.247 30.5203 147.215 30.5203C147.198 30.5203 147.174 30.5203 147.141 30.5203C147.125 30.5203 147.1 30.5203 147.068 30.5203C147.035 30.5203 147.002 30.5285 146.97 30.5448C146.953 30.5448 146.929 30.5448 146.896 30.5448C146.88 30.5448 146.855 30.5448 146.823 30.5448C146.806 30.5448 146.782 30.5448 146.749 30.5448C146.733 30.5448 146.708 30.5448 146.676 30.5448C146.659 30.5448 146.635 30.5448 146.602 30.5448C146.586 30.5448 146.561 30.5448 146.529 30.5448C146.512 30.5448 146.488 30.5448 146.455 30.5448C146.439 30.5448 146.423 30.5448 146.406 30.5448C146.39 30.5448 146.365 30.5448 146.333 30.5448C146.316 30.5448 146.292 30.5448 146.259 30.5448C146.243 30.5448 146.218 30.5448 146.186 30.5448C146.169 30.5448 146.145 30.5448 146.112 30.5448L145.034 30.5693C144.479 30.553 143.956 30.5285 143.467 30.4958C142.977 30.4795 142.519 30.4469 142.095 30.3979C141.686 30.3489 141.319 30.2754 140.992 30.1774C140.666 30.0794 140.372 29.9732 140.11 29.8589C139.849 29.7283 139.637 29.5405 139.474 29.2955C139.327 29.0505 139.237 28.7321 139.204 28.3401C139.155 27.9482 139.171 27.499 139.253 26.9928C139.335 26.4702 139.457 25.8822 139.62 25.229L143.785 25.18C143.752 25.3433 143.72 25.4985 143.687 25.6454C143.671 25.7761 143.654 25.9067 143.638 26.0374C143.622 26.1517 143.622 26.266 143.638 26.3804C143.654 26.4947 143.679 26.5927 143.711 26.6743C143.744 26.756 143.785 26.8295 143.834 26.8948C143.899 26.9601 143.989 27.0173 144.103 27.0663C144.201 27.1153 144.316 27.1479 144.446 27.1643C144.593 27.1806 144.749 27.1888 144.912 27.1888L146.823 27.1398C146.839 27.1561 146.855 27.1643 146.872 27.1643C146.888 27.1643 146.904 27.1643 146.921 27.1643C146.937 27.1643 146.945 27.1643 146.945 27.1643C146.961 27.1643 146.978 27.1643 146.994 27.1643C147.01 27.1643 147.027 27.1643 147.043 27.1643C147.157 27.1643 147.264 27.1643 147.362 27.1643C147.476 27.1479 147.582 27.1316 147.68 27.1153C147.762 27.0989 147.827 27.0826 147.876 27.0663C147.941 27.0499 148.007 27.0336 148.072 27.0173C148.105 27.0009 148.137 26.9928 148.17 26.9928C148.203 26.9764 148.235 26.9601 148.268 26.9438C148.382 26.9111 148.48 26.854 148.562 26.7723C148.66 26.6906 148.75 26.5927 148.831 26.4783C148.913 26.3477 148.987 26.2089 149.052 26.0619C149.117 25.9149 149.174 25.7516 149.223 25.5719C149.272 25.3923 149.305 25.2372 149.321 25.1065C149.338 24.9759 149.329 24.8534 149.297 24.739C149.28 24.6411 149.248 24.5594 149.199 24.4941C149.166 24.4124 149.109 24.3553 149.027 24.3226C148.962 24.2899 148.88 24.2573 148.782 24.2246C148.684 24.1919 148.578 24.1675 148.464 24.1511C148.35 24.1185 148.227 24.1021 148.096 24.1021C147.982 24.0858 147.86 24.0695 147.729 24.0531C147.713 24.0531 147.696 24.0531 147.68 24.0531C147.664 24.0531 147.647 24.0531 147.631 24.0531C147.615 24.0531 147.598 24.0531 147.582 24.0531C147.566 24.0531 147.558 24.0531 147.558 24.0531C147.492 24.0531 147.419 24.0531 147.337 24.0531C147.272 24.0531 147.206 24.0531 147.141 24.0531C147.076 24.0531 147.01 24.0531 146.945 24.0531C146.88 24.0368 146.814 24.0205 146.749 24.0041C146.684 24.0041 146.618 24.0041 146.553 24.0041C146.504 24.0041 146.447 24.0041 146.382 24.0041C146.349 24.0041 146.316 24.0041 146.284 24.0041C146.267 24.0041 146.243 23.996 146.21 23.9796C146.178 23.9796 146.145 23.9796 146.112 23.9796C146.096 23.9633 146.071 23.9551 146.039 23.9551C145.565 23.9225 145.116 23.8817 144.691 23.8327C144.283 23.7837 143.907 23.7265 143.565 23.6612C143.222 23.5795 142.903 23.4897 142.609 23.3917C142.315 23.2937 142.046 23.1876 141.801 23.0733C141.572 22.9426 141.384 22.763 141.237 22.5343C141.107 22.2893 141.025 21.9872 140.992 21.6279C140.96 21.2523 140.976 20.8277 141.041 20.3541C141.107 19.8805 141.221 19.3415 141.384 18.7373C141.482 18.378 141.588 18.0432 141.703 17.7329C141.833 17.4063 141.964 17.1123 142.095 16.851C142.242 16.5734 142.405 16.3284 142.585 16.1161C142.764 15.8875 142.96 15.6752 143.173 15.4792C143.385 15.2995 143.614 15.1362 143.858 14.9892C144.103 14.8423 144.365 14.7116 144.642 14.5973C144.92 14.4993 145.23 14.4176 145.573 14.3523C145.916 14.2707 146.276 14.2135 146.651 14.1808C146.7 14.1808 146.749 14.1808 146.798 14.1808C146.863 14.1808 146.929 14.1727 146.994 14.1563C147.043 14.1563 147.092 14.1563 147.141 14.1563C147.206 14.1563 147.272 14.1563 147.337 14.1563C147.468 14.1563 147.59 14.1563 147.705 14.1563C147.835 14.14 147.958 14.1237 148.072 14.1073C148.137 14.1073 148.194 14.1073 148.243 14.1073C148.309 14.1073 148.374 14.1073 148.439 14.1073C148.472 14.1073 148.497 14.1073 148.513 14.1073C148.546 14.1073 148.578 14.0992 148.611 14.0828C148.644 14.0828 148.676 14.0828 148.709 14.0828C148.758 14.0828 148.799 14.0828 148.831 14.0828C148.864 14.0828 148.889 14.0828 148.905 14.0828C148.938 14.0828 148.97 14.0747 149.003 14.0583C149.019 14.0583 149.044 14.0583 149.076 14.0583C149.109 14.0583 149.142 14.0583 149.174 14.0583C149.24 14.0583 149.297 14.0583 149.346 14.0583C149.411 14.0583 149.476 14.0583 149.542 14.0583C150.015 14.0583 150.465 14.0747 150.889 14.1073C151.314 14.14 151.714 14.1808 152.089 14.2298C152.465 14.2788 152.816 14.3441 153.143 14.4258C153.486 14.4911 153.804 14.5728 154.098 14.6708C154.376 14.7851 154.605 14.9566 154.784 15.1852C154.964 15.3975 155.086 15.6752 155.152 16.0181C155.217 16.3611 155.225 16.7612 155.176 17.2185C155.143 17.6757 155.054 18.1902 154.907 18.7618C154.89 18.7781 154.882 18.7944 154.882 18.8108C154.882 18.8108 154.882 18.8189 154.882 18.8353C154.882 18.8353 154.882 18.8434 154.882 18.8598C154.866 18.8761 154.858 18.8924 154.858 18.9088C154.858 18.9088 154.858 18.9169 154.858 18.9333C154.841 18.9496 154.833 18.9578 154.833 18.9578C154.833 18.9741 154.833 18.9904 154.833 19.0067C154.817 19.0231 154.8 19.0394 154.784 19.0557C154.784 19.0557 154.784 19.0639 154.784 19.0802C154.784 19.0966 154.784 19.1129 154.784 19.1292C154.784 19.1292 154.776 19.1374 154.76 19.1537C154.76 19.1701 154.76 19.1864 154.76 19.2027C154.743 19.2191 154.735 19.2354 154.735 19.2517C154.735 19.268 154.735 19.2762 154.735 19.2762V19.2272Z" fill="white"/>
<path d="M24.043 26.3408H18.5938L17.082 29.5283H12.6641L21.6992 12.4658H25.4727L28.625 29.5283H24.4531L24.043 26.3408ZM20.0938 23.165H23.6328L22.8828 17.2822L20.0938 23.165ZM30.0078 29.5283L32.9609 12.4658L38.3867 12.4775C40.5273 12.4854 42.125 12.8916 43.1797 13.6963C44.2344 14.501 44.7148 15.6299 44.6211 17.083C44.5039 18.8799 43.5195 20.1533 41.668 20.9033C42.332 21.1377 42.8477 21.5635 43.2148 22.1807C43.5898 22.79 43.75 23.5244 43.6953 24.3838C43.5859 26.0322 42.9336 27.3018 41.7383 28.1924C40.5508 29.083 38.9219 29.5283 36.8516 29.5283H30.0078ZM35.2812 22.2744L34.5664 26.3643L36.9688 26.376C37.7188 26.376 38.3438 26.1924 38.8438 25.8252C39.3438 25.4502 39.6406 24.9541 39.7344 24.3369C39.9531 23.0322 39.4531 22.3486 38.2344 22.2861L35.2812 22.2744ZM35.7383 19.5791L37.625 19.5908C39.3672 19.5518 40.3438 18.8838 40.5547 17.5869C40.7422 16.3057 40.0781 15.6611 38.5625 15.6533L36.4297 15.6416L35.7383 19.5791ZM59.4453 23.7158C59.3438 24.9111 58.9492 25.9736 58.2617 26.9033C57.582 27.833 56.6836 28.5479 55.5664 29.0479C54.457 29.5479 53.2539 29.7861 51.957 29.7627C50.1758 29.7236 48.7734 29.1494 47.75 28.04C46.7266 26.9307 46.168 25.4268 46.0742 23.5283C46.0039 22.2627 46.1406 20.8838 46.4844 19.3916C46.8359 17.8994 47.4023 16.6025 48.1836 15.501C48.9727 14.3916 49.8984 13.5635 50.9609 13.0166C52.0312 12.4619 53.1992 12.1963 54.4648 12.2197C56.3242 12.251 57.793 12.8096 58.8711 13.8955C59.957 14.9814 60.5469 16.4775 60.6406 18.3838L56.6445 18.3721C56.6602 17.333 56.4727 16.5908 56.082 16.1455C55.6914 15.7002 55.0742 15.4619 54.2305 15.4307C52.1211 15.3604 50.8359 17.001 50.375 20.3525C50.1641 21.8682 50.0586 22.9502 50.0586 23.5986C50.0195 25.5205 50.7305 26.5088 52.1914 26.5635C53.1367 26.5947 53.8906 26.3643 54.4531 25.8721C55.0156 25.3721 55.375 24.6689 55.5312 23.7627L59.4453 23.7158Z" fill="white"/>
</svg>
