<svg width="24" height="20" viewBox="0 0 24 20" fill="none" xmlns="http://www.w3.org/2000/svg">
<path d="M2.22222 4.44444V17.7778H18.8889V20H2.22222C0 20 0 17.7778 0 17.7778V4.44444H2.22222ZM21.1111 2.22222V13.3333H6.66667V2.22222H21.1111ZM21.4444 0H6.33333C5.28889 0 4.44444 0.777778 4.44444 1.72222V13.8333C4.44444 14.7889 5.28889 15.5556 6.33333 15.5556H21.4444C22.4889 15.5556 23.3333 14.7889 23.3333 13.8333V1.72222C23.3333 0.777778 22.4889 0 21.4444 0ZM7.77778 3.33333H11.1111V8.88889H7.77778V3.33333ZM20 12.2222H7.77778V10H20V12.2222ZM20 5.55556H13.3333V3.33333H20V5.55556ZM20 8.88889H13.3333V6.66667H20V8.88889Z" fill="#E91B1B"/>
</svg>
