<svg width="26" height="26" viewBox="0 0 26 26" fill="none" xmlns="http://www.w3.org/2000/svg">
<path d="M21.5306 3.25H4.4681C3.19843 3.25 2.16602 4.22175 2.16602 5.41667V20.5833C2.16602 21.7783 3.19843 22.75 4.4681 22.75H21.5306C22.8003 22.75 23.8327 21.7783 23.8327 20.5833V5.41667C23.8327 4.22175 22.8003 3.25 21.5306 3.25ZM21.5306 20.5833H4.4681C4.40635 20.5833 4.3641 20.566 4.34568 20.566C4.3381 20.566 4.33377 20.5682 4.33268 20.5747L4.31968 5.4665C4.32727 5.45567 4.37602 5.41667 4.4681 5.41667H21.5306C21.6162 5.41775 21.6628 5.447 21.666 5.42533L21.679 20.5335C21.6714 20.5443 21.6227 20.5833 21.5306 20.5833Z" fill="#E91B1B"/>
<path d="M6.5 7.58337H13V14.0834H6.5V7.58337ZM14.0833 16.25H6.5V18.4167H19.5V16.25H15.1667H14.0833ZM15.1667 11.9167H19.5V14.0834H15.1667V11.9167ZM15.1667 7.58337H19.5V9.75004H15.1667V7.58337Z" fill="#E91B1B"/>
</svg>
