<svg width="19" height="19" viewBox="0 0 19 19" fill="none" xmlns="http://www.w3.org/2000/svg">
<path d="M18.62 16.3355L14.9686 12.6847C14.8038 12.5199 14.5804 12.4284 14.346 12.4284H13.749C14.7599 11.1358 15.3605 9.50995 15.3605 7.74132C15.3605 3.53397 11.9508 0.124878 7.74275 0.124878C3.53467 0.124878 0.125 3.53397 0.125 7.74132C0.125 11.9487 3.53467 15.3578 7.74275 15.3578C9.51167 15.3578 11.1378 14.7572 12.4306 13.7466V14.3435C12.4306 14.5778 12.5221 14.8012 12.687 14.966L16.3383 18.6167C16.6826 18.9609 17.2393 18.9609 17.5799 18.6167L18.6163 17.5805C18.9606 17.2362 18.9606 16.6797 18.62 16.3355ZM7.74275 12.4284C5.15344 12.4284 3.0549 10.3338 3.0549 7.74132C3.0549 5.15246 5.14978 3.05428 7.74275 3.05428C10.332 3.05428 12.4306 5.1488 12.4306 7.74132C12.4306 10.3302 10.3357 12.4284 7.74275 12.4284Z" fill="#2E2F41"/>
</svg>
